<?xml version="1.0" encoding="UTF-8" standalone="no"?>
<!-- Created with Inkscape (http://www.inkscape.org/) -->

<svg
   width="16"
   height="16"
   viewBox="0 0 16 16"
   version="1.1"
   id="svg1"
   xml:space="preserve"
   xmlns="http://www.w3.org/2000/svg"
   xmlns:svg="http://www.w3.org/2000/svg"><defs
     id="defs1"><clipPath
       clipPathUnits="userSpaceOnUse"
       id="clipPath9"><path
         id="path9"
         style="display:none;fill:#a69be0;fill-opacity:1;stroke:none;stroke-width:0.525551;stroke-dasharray:none;stroke-opacity:1"
         d="M 8.4277344,2.7304688 V 8.9863281 C 8.2383079,9.2359454 8.1508112,9.5247699 8.1699219,9.8027344 l -0.058594,-0.076172 c 0.022589,0.3227816 0.2373594,0.5986626 0.4609375,0.9492186 0.5438634,0.852742 -1.755925,1.604067 1.4453126,1.816407 1.197832,-0.01341 1.937067,-1.239878 1.925781,-2.261719 -0.0062,-0.4144731 -0.144985,-0.8069689 -0.376953,-1.1269535 V 2.7304688 Z" /><path
         id="lpe_path-effect9"
         style="display:block;fill:#a69be0;fill-opacity:1;stroke:none;stroke-width:0.525551;stroke-dasharray:none;stroke-opacity:1"
         class="powerclip"
         d="M -3.9995831,1.2615524 H 20.000417 V 19.994826 H -3.9995831 Z M 8.4277344,2.7304688 V 8.9863281 C 8.2383079,9.2359454 8.1508112,9.5247699 8.1699219,9.8027344 l -0.058594,-0.076172 c 0.022589,0.3227816 0.2373594,0.5986626 0.4609375,0.9492186 0.5438634,0.852742 -1.755925,1.604067 1.4453126,1.816407 1.197832,-0.01341 1.937067,-1.239878 1.925781,-2.261719 -0.0062,-0.4144731 -0.144985,-0.8069689 -0.376953,-1.1269535 V 2.7304688 Z" /></clipPath><clipPath
       clipPathUnits="userSpaceOnUse"
       id="clipPath11"><path
         fill="#e0e0e0"
         d="m 5.9860844,1.6242046 -5.00000003,2 v 6.3821584 l 5.00000003,-1.9999998 4,1.9999998 4.9999996,-1.9999998 V 1.6242046 l -4.9999996,2 z"
         id="path12"
         style="display:none;fill:#ffffff;fill-opacity:1" /><path
         id="lpe_path-effect12"
         style="fill:#ffffff;fill-opacity:1"
         class="powerclip"
         d="M -1.9829281,0.04185125 H 17.991436 V 20.016667 H -1.9829281 Z m 7.9690125,1.58235335 -5.00000003,2 v 6.3821584 l 5.00000003,-1.9999998 4,1.9999998 4.9999996,-1.9999998 V 1.6242046 l -4.9999996,2 z" /></clipPath><clipPath
       clipPathUnits="userSpaceOnUse"
       id="clipPath13"><path
         fill="#e0e0e0"
         d="m 5.9860844,1.6242046 -5.00000003,2 v 6.3821584 l 5.00000003,-1.9999998 4,1.9999998 4.9999996,-1.9999998 V 1.6242046 l -4.9999996,2 z"
         id="path13"
         style="display:none;fill:#ffffff;fill-opacity:1" /><path
         id="lpe_path-effect13"
         style="fill:#ffffff;fill-opacity:1"
         class="powerclip"
         d="M -2.0083317,-0.01670881 H 17.970137 V 19.964969 H -2.0083317 Z m 7.9944161,1.64091341 -5.00000003,2 v 6.3821584 l 5.00000003,-1.9999998 4,1.9999998 4.9999996,-1.9999998 V 1.6242046 l -4.9999996,2 z" /></clipPath></defs><g
     id="layer1"
     style="display:none"><path
       fill="#e0e0e0"
       d="m 6.0004169,6.2615524 -5,2 v 6.7332736 l 5,-2 4.0000001,2 5,-2 V 6.2615524 l -5,2 z m 0,2 4.0000001,1.9999996 v 2.733274 l -4.0000001,-2 z"
       id="path1-5"
       mask="none"
       clip-path="url(#clipPath9)"
       style="fill:#fc7f7f;fill-opacity:1" /><path
       fill="#e0e0e0"
       d="m 8.7411972,9.8900424 c 0.016092,0.2477296 0.1303807,0.5057116 0.3423277,0.7286166 0.679231,0.71435 -1.3756969,1.307068 0.9742051,1.320327 0.742122,0.0047 1.380239,-0.877536 1.3722,-1.661783 C 11.41893,9.4897013 10.81585,8.8554476 10.07147,8.8485048 9.1483964,8.8431113 8.7067933,9.3439774 8.7416119,9.8896014 Z M 9.0108458,8.0576335 11.007528,8.0512882 10.990635,2.0658734 C 10.999888,0.64347985 8.9823445,0.62785039 8.9730918,2.0502758 Z"
       id="path1-9"
       style="fill:#fc7f7f;fill-opacity:1;stroke:none;stroke-width:0.388595;stroke-dasharray:none;stroke-opacity:1" /></g><g
     id="layer2"><path
       fill="none"
       stroke="#ffca5f"
       stroke-width="1.42595"
       d="m 7.9809028,5.6962666 a 4.277864,4.277864 0 0 0 0,8.5557274 4.277864,4.277864 0 0 0 0,-8.5557274 V 14.251994 M 3.7386878,9.5463435 a 4.2778639,1.4259547 0 0 0 8.4844292,0"
       id="path1-93"
       style="display:none;stroke:#fc7f7f;stroke-opacity:1"
       clip-path="url(#clipPath13)" /><path
       fill="#fc7f7f"
       d="M 5.6762971,5.7581943 A 1.4236884,1.4236884 0 1 0 3.7329624,7.701529 v 4.656172 a 1.4236884,1.4236884 0 1 0 1.9433347,1.942623 H 10.33247 a 1.4236884,1.4236884 0 1 0 1.942623,-1.943335 V 7.7008171 A 1.4236884,1.4236884 0 1 0 10.331758,5.7581943 Z m 0.4861895,1.4236884 h 4.1692714 a 1.4236884,1.4236884 0 0 0 0.518934,0.5196463 v 4.168559 L 6.1617748,7.1818827 Z M 5.1559389,8.1884304 9.8434329,12.876636 H 5.6741615 A 1.4236884,1.4236884 0 0 0 5.1552271,12.356989 V 8.1884304 Z"
       id="path1-2"
       style="display:inline;stroke-width:0.711844"
       clip-path="url(#clipPath11)" /><path
       fill="#e0e0e0"
       d="M 5.9860844,1 0.98608437,3 v 5.9725243 l 5.00000003,-2 4,2 4.9999996,-2 V 1 L 9.9860844,3 Z m 0,2 4,2 v 1.9725243 l -4,-2 z"
       id="path1"
       style="fill:#fc7f7f;fill-opacity:1" /></g></svg>
