<svg width="16" height="16" viewBox="0 0 16 16">
  <path
    d="M8.985 3.7 11.235 6.265Q14.025 6.265 14.025 5.275 14.025 4.645 14.0187 4.6401 14.025 3.025 8.985 3.7ZM3.9 5.59Q3.36 5.59 2.775 5.59 1.65 5.59 1.65 4.285T2.775 3.025L3.9 3.025Q5.025 3.025 6.15 4.285L11.775 10.765Q12.36 10.765 12.9 10.765 14.025 10.765 14.025 12.07T12.9 13.375L11.775 13.375Q10.65 13.375 9.525 12.07ZM4.485 10.135 6.735 12.745Q1.65 13.375 1.65 12.07 1.65 9.46 1.65 11.35 1.65 10.135 4.485 10.135Z"
    fill="#fc7f7f"
  />
</svg>
