<?xml version="1.0" encoding="UTF-8" standalone="no"?>
<svg
   width="16"
   height="16"
   version="1.1"
   id="svg1"
   sodipodi:docname="GhostMesh2.svg"
   inkscape:version="1.4.2 (f4327f4, 2025-05-13)"
   xmlns:inkscape="http://www.inkscape.org/namespaces/inkscape"
   xmlns:sodipodi="http://sodipodi.sourceforge.net/DTD/sodipodi-0.dtd"
   xmlns="http://www.w3.org/2000/svg"
   xmlns:svg="http://www.w3.org/2000/svg">
  <defs
     id="defs1" />
  <sodipodi:namedview
     id="namedview1"
     pagecolor="#505050"
     bordercolor="#eeeeee"
     borderopacity="1"
     inkscape:showpageshadow="0"
     inkscape:pageopacity="0"
     inkscape:pagecheckerboard="0"
     inkscape:deskcolor="#505050"
     inkscape:zoom="11.835938"
     inkscape:cx="-20.446205"
     inkscape:cy="-20.657426"
     inkscape:window-width="3200"
     inkscape:window-height="1733"
     inkscape:window-x="2391"
     inkscape:window-y="-9"
     inkscape:window-maximized="1"
     inkscape:current-layer="svg1" />
  <path
     id="path1"
     style="stroke-width:0.599042;fill:#fc7f7f;fill-opacity:1"
     d="M 13.732422 6.6152344 A 1.1980838 1.1980838 0 0 0 12.767578 7.2148438 L 9.5703125 7.2148438 C 9.817897 7.5523962 9.9246897 7.9990895 9.8613281 8.4121094 L 12.767578 8.4121094 A 1.1980838 1.1980838 0 0 0 13.205078 8.8496094 L 13.205078 12.357422 L 9.7246094 8.8789062 C 9.5750191 9.2766416 9.2577539 9.5664767 8.8789062 9.7265625 L 12.357422 13.205078 L 8.8476562 13.205078 A 1.1980838 1.1980838 0 0 0 8.4121094 12.767578 L 8.4121094 9.8535156 C 7.9925609 9.9112171 7.5541537 9.8261454 7.2148438 9.5761719 L 7.2148438 12.769531 A 1.1980838 1.1980838 0 1 0 8.8496094 14.404297 L 12.769531 14.404297 A 1.1980838 1.1980838 0 1 0 14.404297 12.767578 L 14.404297 8.8496094 A 1.1980838 1.1980838 0 0 0 13.732422 6.6152344 z " />
  <path
     fill="#fc7f7f"
     d="M 3.232079,1.5964894 A 1.1980474,1.1980474 0 1 0 1.5967443,3.2318241 v 3.918214 A 1.1980474,1.1980474 0 1 0 3.232079,8.7847738 H 7.1502931 A 1.1980474,1.1980474 0 1 0 8.7850288,7.1494391 V 3.2312251 A 1.1980474,1.1980474 0 1 0 7.1496941,1.5964894 Z M 3.6412122,2.7945368 H 7.1496941 A 1.1980474,1.1980474 0 0 0 7.5863823,3.2318241 V 6.7397069 L 3.6406132,2.7945368 Z M 2.7941927,3.6415563 6.7387638,7.5867264 H 3.230282 A 1.1980474,1.1980474 0 0 0 2.7935937,7.1494391 V 3.6415563 Z"
     id="path3"
     style="display:inline;stroke-width:0.599024" />
</svg>
